<svg xmlns="http://www.w3.org/2000/svg" xmlns:xlink="http://www.w3.org/1999/xlink" viewBox="0 0 115.27 144"><defs><style>.cls-1{fill:url(#Degradado_sin_nombre_28);}</style><linearGradient id="Degradado_sin_nombre_28" y1="72" x2="115.27" y2="72" gradientUnits="userSpaceOnUse"><stop offset="0" stop-color="#51358c"/><stop offset="1" stop-color="#7fcff5"/></linearGradient></defs><g id="Capa_2" data-name="Capa 2"><g id="Capa_1-2" data-name="Capa 1"><path class="cls-1" d="M49.82,52.73a45.46,45.46,0,0,1,4.27-4.82,32.26,32.26,0,0,1,6.27-4.82,44.6,44.6,0,0,1,8-3.73A28.71,28.71,0,0,1,78,37.82q18.9,0,28.09,13.91t9.18,39.18q0,25.28-9.18,39.18T78,144a28.71,28.71,0,0,1-9.64-1.55,44.58,44.58,0,0,1-8-3.72,32.66,32.66,0,0,1-6.27-4.82,46.47,46.47,0,0,1-4.27-4.82v12.36H0V111.63H8V29.82H0V0H49.82ZM70.91,81.82q0-6.18-2.64-8.91c-1.76-1.82-4.39-2.73-7.91-2.73s-6.15.91-7.91,2.73-2.63,4.79-2.63,8.91V100q0,6.18,2.63,8.91c1.76,1.82,4.4,2.72,7.91,2.72s6.15-.9,7.91-2.72,2.64-4.79,2.64-8.91Z"/></g></g></svg>