<svg xmlns="http://www.w3.org/2000/svg" xmlns:xlink="http://www.w3.org/1999/xlink" viewBox="0 0 866.16 184.36"><defs><style>.cls-1{fill:url(#Degradado_sin_nombre_28);}</style><linearGradient id="Degradado_sin_nombre_28" y1="92.18" x2="866.16" y2="92.18" gradientUnits="userSpaceOnUse"><stop offset="0" stop-color="#51358c"/><stop offset="1" stop-color="#7fcff5"/></linearGradient></defs><g id="Capa_2" data-name="Capa 2"><g id="Capa_1-2" data-name="Capa 1"><path class="cls-1" d="M49.82,52.73a45.46,45.46,0,0,1,4.27-4.82,32.26,32.26,0,0,1,6.27-4.82,44.6,44.6,0,0,1,8-3.73A28.71,28.71,0,0,1,78,37.82q18.9,0,28.09,13.91t9.18,39.18q0,25.28-9.18,39.18T78,144a28.71,28.71,0,0,1-9.64-1.55,44.58,44.58,0,0,1-8-3.72,32.66,32.66,0,0,1-6.27-4.82,46.47,46.47,0,0,1-4.27-4.82v12.36H0V111.63H8V29.82H0V0H49.82ZM70.91,81.82q0-6.18-2.64-8.91c-1.76-1.82-4.39-2.73-7.91-2.73s-6.15.91-7.91,2.73-2.63,4.79-2.63,8.91V100q0,6.18,2.63,8.91c1.76,1.82,4.4,2.72,7.91,2.72s6.15-.9,7.91-2.72,2.64-4.79,2.64-8.91Z"/><path class="cls-1" d="M120.72,0h49.82V111.63h8v29.82H120.72V111.63h8V29.82h-8Z"/><path class="cls-1" d="M291.63,90.91q0,13.45-3.82,23.36a43.29,43.29,0,0,1-11,16.55,46.09,46.09,0,0,1-17.36,9.91,80.63,80.63,0,0,1-45.46,0,46,46,0,0,1-17.36-9.91,43.4,43.4,0,0,1-11-16.55q-3.82-9.9-3.82-23.36a64.9,64.9,0,0,1,3.82-23.27,43.29,43.29,0,0,1,11-16.64A45.88,45.88,0,0,1,214,41.09a80.63,80.63,0,0,1,45.46,0A46,46,0,0,1,276.81,51a43.18,43.18,0,0,1,11,16.64A64.9,64.9,0,0,1,291.63,90.91Zm-54.91,20.72c3.51,0,6.15-.9,7.91-2.72s2.64-4.79,2.64-8.91V81.82q0-6.18-2.64-8.91t-7.91-2.73c-3.52,0-6.15.91-7.91,2.73s-2.63,4.79-2.63,8.91V100c0,4.12.87,7.09,2.63,8.91S233.2,111.63,236.72,111.63Z"/><path class="cls-1" d="M338.9,97.45q0,6.74,3.73,10.46t12.45,3.72a177.21,177.21,0,0,0,17.82-.9q8.91-.92,17.27-2.37v28.55c-2.3.85-4.79,1.7-7.45,2.54a87.15,87.15,0,0,1-8.91,2.28q-4.9,1-10.82,1.63a126.88,126.88,0,0,1-13.36.64,74.74,74.74,0,0,1-22.91-3.27,45.93,45.93,0,0,1-17.36-9.91,43.29,43.29,0,0,1-11-16.55q-3.83-9.9-3.82-23.36a64.9,64.9,0,0,1,3.82-23.27,43.18,43.18,0,0,1,11-16.64,45.8,45.8,0,0,1,17.36-9.91,74.1,74.1,0,0,1,22.73-3.27,81.09,81.09,0,0,1,13.9,1.09,83.69,83.69,0,0,1,11.37,2.73,69.7,69.7,0,0,1,9.18,3.63q4.1,2,7.36,3.82v36H360V81.82q0-6.18-2.64-8.91c-1.75-1.82-4.39-2.73-7.9-2.73s-6,.91-7.82,2.73-2.73,4.79-2.73,8.91Z"/><path class="cls-1" d="M504.71,70.18,489.26,87.45l17.45,24.18h7.82v29.82H470l-18.73-34.91H446.9v34.91H397.08V111.63h8V29.82h-8V0H446.9V73.82h4.36l22.55-33.46h38.36V70.18Z"/><path class="cls-1" d="M584,40.36H633.8V70.18h-8v64q0,13.45-3.36,23a36.76,36.76,0,0,1-10.09,15.55,41.76,41.76,0,0,1-16.55,8.81,81.8,81.8,0,0,1-22.54,2.82,167.53,167.53,0,0,1-24.36-1.82,107.5,107.5,0,0,1-19.1-4.18V148.54q7.65,1.46,16.64,2.46a163.71,163.71,0,0,0,17.91,1q10.73,0,15.18-3.37T584,136.91v-7.82a42.19,42.19,0,0,1-4.37,4.82,36.86,36.86,0,0,1-6.27,4.82,40.74,40.74,0,0,1-8,3.72A28.93,28.93,0,0,1,555.8,144q-18.9,0-28.09-13.91t-9.18-39.18q0-25.27,9.18-39.18T555.8,37.82a28.93,28.93,0,0,1,9.55,1.54,40.76,40.76,0,0,1,8,3.73,36.35,36.35,0,0,1,6.27,4.82A41.37,41.37,0,0,1,584,52.73ZM562.9,100c0,4.12.87,7.09,2.63,8.91s4.39,2.72,7.91,2.72,6.15-.9,7.91-2.72S584,104.12,584,100V81.82c0-4.12-.89-7.09-2.64-8.91s-4.4-2.73-7.91-2.73-6.15.91-7.91,2.73-2.63,4.79-2.63,8.91Z"/><path class="cls-1" d="M692,37.82q14,0,23.28,4.09a41.22,41.22,0,0,1,14.9,10.63,37.72,37.72,0,0,1,7.91,14.91,64.09,64.09,0,0,1,2.28,16.91V97.45H681.44v1.09q0,6.55,3.72,9.82t13.55,3.27a123.55,123.55,0,0,0,22-1.81,123.72,123.72,0,0,0,16.54-4v29.09a70.57,70.57,0,0,1-7.54,3.18,97.91,97.91,0,0,1-22.09,5.09A133.16,133.16,0,0,1,692,144a74,74,0,0,1-22.72-3.27,46.05,46.05,0,0,1-17.37-9.91,43.4,43.4,0,0,1-11-16.55q-3.81-9.9-3.82-23.36a65.12,65.12,0,0,1,3.82-23.27,43.29,43.29,0,0,1,11-16.64,45.92,45.92,0,0,1,17.37-9.91A74,74,0,0,1,692,37.82Zm0,32.36q-5.26,0-7.91,2.73c-1.76,1.82-2.63,4.79-2.63,8.91v1.09h21.09V81.82q0-6.18-2.64-8.91C698.13,71.09,695.5,70.18,692,70.18Z"/><path class="cls-1" d="M808.34,111.63h8V81.82q0-6.18-2.63-8.91t-7.91-2.73c-3.52,0-6.15.91-7.91,2.73s-2.64,4.79-2.64,8.91v29.81h8v29.82H745.44V111.63h8V70.18h-8V40.36h49.81V52.73c1.46-1.46,3.09-3.06,4.91-4.82a33.45,33.45,0,0,1,6.46-4.82,43.5,43.5,0,0,1,8.45-3.73A35.13,35.13,0,0,1,826,37.82q14.91,0,23.55,10.63t8.63,33.37v29.81h8v29.82H808.34Z"/></g></g></svg>