<svg xmlns="http://www.w3.org/2000/svg" xmlns:xlink="http://www.w3.org/1999/xlink" viewBox="0 0 727.62 144"><defs><style>.cls-1{fill:url(#Degradado_sin_nombre_28);}</style><linearGradient id="Degradado_sin_nombre_28" y1="72" x2="727.62" y2="72" gradientUnits="userSpaceOnUse"><stop offset="0" stop-color="#51358c"/><stop offset="1" stop-color="#7fcff5"/></linearGradient></defs><g id="Capa_2" data-name="Capa 2"><g id="Capa_1-2" data-name="Capa 1"><path class="cls-1" d="M52.36,40.36H76.91V70.18H52.36V100q0,6.18,2.64,8.91c1.76,1.82,4.39,2.72,7.91,2.72A73.71,73.71,0,0,0,78,110v28.54a91.35,91.35,0,0,1-13.91,3.82A87.56,87.56,0,0,1,46.73,144a61.63,61.63,0,0,1-16.46-2,27.37,27.37,0,0,1-12.09-6.82,31.29,31.29,0,0,1-7.54-12.64Q8,114.73,8,103.09V70.18H0V40.36q7.28,0,10.55-3.72a14,14,0,0,0,3.27-9.55V18.91H52.36Z"/><path class="cls-1" d="M146.72,111.63h8V81.82q0-6.18-2.63-8.91t-7.91-2.73c-3.52,0-6.15.91-7.91,2.73s-2.64,4.79-2.64,8.91v29.81h8v29.82H83.82V111.63h8V29.82h-8V0h49.81V52.73c1.46-1.46,3.09-3.06,4.91-4.82A33.45,33.45,0,0,1,145,43.09a43.5,43.5,0,0,1,8.45-3.73,35.13,35.13,0,0,1,10.91-1.54q14.91,0,23.55,10.63t8.63,33.37v29.81h8v29.82H146.72Z"/><path class="cls-1" d="M273.27,129.09a43.16,43.16,0,0,1-4.37,4.82,32,32,0,0,1-6.63,4.82,45.38,45.38,0,0,1-9.1,3.72A41,41,0,0,1,241.45,144q-15.82,0-24.73-7.27t-8.91-21.1q0-17.26,16.09-26.09t49.37-8.81c0-3.4-1.1-6-3.28-7.82s-6.66-2.73-13.45-2.73a148.85,148.85,0,0,0-21.91,1.64q-11,1.64-20.27,3.63V44.18a187.17,187.17,0,0,1,22.72-4.45,195.54,195.54,0,0,1,27.64-1.91q14.55,0,24.27,2.72t15.55,8.28a30.12,30.12,0,0,1,8.18,13.82,70.23,70.23,0,0,1,2.36,19.18v29.81h8v29.82H273.27Zm0-30.18q-11.28,0-16.19,1.54t-4.91,5.37q0,5.82,10,5.81,11.1,0,11.1-11.63Z"/><path class="cls-1" d="M390.72,111.63h8V81.82q0-6.18-2.64-8.91c-1.76-1.82-4.39-2.73-7.91-2.73s-6.15.91-7.91,2.73-2.63,4.79-2.63,8.91v29.81h8v29.82H327.81V111.63h8V70.18h-8V40.36h49.82V52.73c1.45-1.46,3.09-3.06,4.91-4.82A33.06,33.06,0,0,1,389,43.09a43.5,43.5,0,0,1,8.45-3.73,35.18,35.18,0,0,1,10.91-1.54q14.91,0,23.55,10.63t8.64,33.37v29.81h8v29.82H390.72Z"/><path class="cls-1" d="M560.89,70.18,545.44,87.45l17.45,24.18h7.82v29.82H526.17l-18.73-34.91h-4.36v34.91H453.26V111.63h8V29.82h-8V0h49.82V73.82h4.36L530,40.36h38.36V70.18Z"/><path class="cls-1" d="M578.89,113.09q13.64,2,22.37,2.64t13.82.63q8,0,10.54-1.27t2.55-3.46q0-2.35-2.73-3.54t-11.27-2.46q-18.92-2.53-29.73-10.9T573.62,71.09a33.77,33.77,0,0,1,2.55-13.18,26.2,26.2,0,0,1,8.18-10.55,41.71,41.71,0,0,1,14.45-7A77.36,77.36,0,0,1,620,37.82a172.92,172.92,0,0,1,24.28,1.55,104,104,0,0,1,17.91,3.94V68q-8.73-1.09-17.64-1.82t-16.91-.73c-5.09,0-8.7.37-10.82,1.09s-3.18,1.82-3.18,3.27a3.29,3.29,0,0,0,.55,1.9,4.42,4.42,0,0,0,2.09,1.45,19.89,19.89,0,0,0,4.27,1.09c1.82.3,4.12.58,6.91.82q21.09,2,31.09,10.34t10,23.76q0,16.14-11.09,25.49T622.71,144a177.55,177.55,0,0,1-25.18-1.64,114.2,114.2,0,0,1-18.64-4Z"/><path class="cls-1" d="M673.26,9.29V0h54.36V9.29l-8.55,98.34H681.62Zm6,104.53h42v27.63h-42Z"/></g></g></svg>